<?xml version="1.0" encoding="utf-8"?>
<!-- Generator: Adobe Illustrator 19.0.0, SVG Export Plug-In . SVG Version: 6.00 Build 0)  -->
<svg version="1.1" id="Layer_1" xmlns="http://www.w3.org/2000/svg" xmlns:xlink="http://www.w3.org/1999/xlink" x="0px" y="0px" width="75px" height="75px" viewBox="0 0 175.9 175.9" style="enable-background:new 0 0 175.9 175.9;" xml:space="preserve">
	<style type="text/css">
		.st0{fill:url(#SVGID_1_);}
		.st1{fill:#FFFFFF;}
	</style>
	<g>
		<radialGradient id="SVGID_1_" cx="51.5322" cy="189.5497" r="233.1221" gradientUnits="userSpaceOnUse">
			<stop  offset="9.693880e-002" style="stop-color:#FFD879"/>
			<stop  offset="0.1539" style="stop-color:#FCCB76"/>
			<stop  offset="0.2583" style="stop-color:#F5AA6C"/>
			<stop  offset="0.3976" style="stop-color:#E9755E"/>
			<stop  offset="0.449" style="stop-color:#E45F58"/>
			<stop  offset="0.6786" style="stop-color:#D22A9C"/>
			<stop  offset="1" style="stop-color:#6968DF"/>
		</radialGradient>
		<path class="st0" d="M175.9,139.8c0,19.9-16.2,36.1-36.1,36.1H36.1c-20,0-36.1-16.2-36.1-36.1V36.1C0,16.2,16.2,0,36.1,0h103.7
			c20,0,36.1,16.2,36.1,36.1V139.8z"/>
			<g>
				<path class="st1" d="M113.4,21.6H62.5c-22.6,0-40.9,18.3-40.9,40.9v50.9c0,22.6,18.3,40.9,40.9,40.9h50.9
					c22.6,0,40.9-18.3,40.9-40.9V62.5C154.3,39.9,136,21.6,113.4,21.6z M141.6,108.5c0,18.2-14.8,33-33,33H67.4c-18.2,0-33-14.8-33-33
					V67.4c0-18.2,14.8-33,33-33h41.1c18.2,0,33,14.8,33,33V108.5z"/>
					<path class="st1" d="M89.7,53.2c-19.3,0-35,15.6-35,34.9c0,19.3,15.6,34.9,35,34.9c19.3,0,34.9-15.7,34.9-34.9
						C124.7,68.9,109,53.2,89.7,53.2z M89.7,109.2c-11.6,0-21-9.4-21-21c0-11.6,9.4-21,21-21c11.6,0,21,9.4,21,21
						C110.8,99.8,101.3,109.2,89.7,109.2z"/>
						<path class="st1" d="M131.2,52.7c0,4.9-4,8.9-8.9,8.9c-4.9,0-8.9-4-8.9-8.9c0-4.9,4-8.9,8.9-8.9C127.2,43.8,131.2,47.8,131.2,52.7
							z"/>
						</g>
					</g>
				</svg>
