<?xml version="1.0" encoding="utf-8"?>
<!-- Generator: Adobe Illustrator 19.0.0, SVG Export Plug-In . SVG Version: 6.00 Build 0)  -->
<svg version="1.1" id="Layer_1" xmlns="http://www.w3.org/2000/svg" xmlns:xlink="http://www.w3.org/1999/xlink" x="0px" y="0px" width="75px" height="75px" viewBox="0 0 155.3 126.2" style="enable-background:new 0 0 155.3 126.2;" xml:space="preserve">
	<style type="text/css">
		.st0{fill:url(#SVGID_1_);}
	</style>
	<g>
		<linearGradient id="SVGID_1_" gradientUnits="userSpaceOnUse" x1="77.6609" y1="126.2389" x2="77.6609" y2="-1.340595e-009">
			<stop  offset="0" style="stop-color:#00AFEF"/>
			<stop  offset="0.4593" style="stop-color:#00BCF4"/>
			<stop  offset="1" style="stop-color:#00D0FD"/>
		</linearGradient>
		<path class="st0" d="M48.8,126.2c58.6,0,90.7-48.6,90.7-90.7c0-1.4,0-2.8-0.1-4.1c6.2-4.5,11.6-10.1,15.9-16.5
			c-5.7,2.5-11.9,4.2-18.3,5c6.6-3.9,11.6-10.2,14-17.6c-6.2,3.6-13,6.3-20.2,7.7C125,3.9,116.7,0,107.5,0
			C89.9,0,75.7,14.3,75.7,31.9c0,2.5,0.3,4.9,0.8,7.3c-26.5-1.3-50-14-65.7-33.3c-2.7,4.7-4.3,10.2-4.3,16c0,11.1,5.6,20.8,14.2,26.5
			c-5.2-0.2-10.1-1.6-14.4-4c0,0.1,0,0.3,0,0.4c0,15.4,11,28.3,25.6,31.2c-2.7,0.7-5.5,1.1-8.4,1.1c-2.1,0-4-0.2-6-0.6
			c4.1,12.7,15.8,21.9,29.8,22.1c-10.9,8.6-24.6,13.6-39.6,13.6c-2.6,0-5.1-0.1-7.6-0.4C14.1,121,30.8,126.2,48.8,126.2"/>
		</g>
	</svg>
